<?xml version="1.0" encoding="utf-8"?>
<!-- Generator: Adobe Illustrator 15.0.0, SVG Export Plug-In . SVG Version: 6.00 Build 0)  -->
<!DOCTYPE svg PUBLIC "-//W3C//DTD SVG 1.1//EN" "http://www.w3.org/Graphics/SVG/1.1/DTD/svg11.dtd">
<svg version="1.1" id="Layer_1" xmlns="http://www.w3.org/2000/svg" xmlns:xlink="http://www.w3.org/1999/xlink" x="0px" y="0px"
	 width="48px" height="48px" viewBox="0 0 48 48" enable-background="new 0 0 48 48" xml:space="preserve">
<path fill="#3F9AD6" d="M5.15,42.965c0-11.854,0-23.673,0-35.529c3.215,0,6.41,0,9.66,0c0-1.086,0-2.138,0-3.219
	c0.564,0,1.076,0,1.625,0c0,1.055,0,2.092,0,3.166c5.398,0,10.762,0,16.18,0c0-1.049,0-2.1,0-3.173c0.555,0,1.053,0,1.605,0
	c0,1.052,0,2.103,0,3.188c3.25,0,6.443,0,9.68,0c0,11.867,0,23.699,0,35.566C31.006,42.965,18.098,42.965,5.15,42.965z
	 M42.283,15.471c0-2.162,0-4.289,0-6.404c-2.695,0-5.352,0-8.061,0c0,1.078,0,2.129,0,3.164c-0.568,0-1.078,0-1.625,0
	c0-1.08,0-2.119,0-3.158c-5.398,0-10.762,0-16.16,0c0,1.074,0,2.111,0,3.174c-0.535,0-1.035,0-1.625,0c0-1.085,0-2.137,0-3.184
	c-2.711,0-5.365,0-8.037,0c0,2.151,0,4.278,0,6.408l0.004,1.684c0,8.09,0,16.146,0,24.205c11.855,0,23.672,0,35.518,0
	c0-8.104,0-16.148,0-24.205L42.283,15.471z"/>
</svg>
