<?xml version="1.0" encoding="utf-8"?>
<!-- Generator: Adobe Illustrator 15.0.0, SVG Export Plug-In . SVG Version: 6.00 Build 0)  -->
<!DOCTYPE svg PUBLIC "-//W3C//DTD SVG 1.1//EN" "http://www.w3.org/Graphics/SVG/1.1/DTD/svg11.dtd">
<svg version="1.1" id="Layer_1" xmlns="http://www.w3.org/2000/svg" xmlns:xlink="http://www.w3.org/1999/xlink" x="0px" y="0px"
	 width="48px" height="48px" viewBox="0 0 48 48" enable-background="new 0 0 48 48" xml:space="preserve">
<path fill="#3F9AD6" d="M37.387,14.996C40.245,18.183,42,22.381,42,27c0,9.941-8.059,18-18,18c-9.941,0-18-8.059-18-18
	c0-8.917,6.49-16.299,15-17.73V5h-2c-0.553,0-1-0.448-1-1s0.447-1,1-1h10c0.553,0,1,0.448,1,1s-0.447,1-1,1h-2v4.265
	c3.428,0.581,6.523,2.124,9.005,4.35l2.329-2.329c0.381-0.381,0.999-0.381,1.381,0c0.381,0.381,0.381,1,0,1.381L37.387,14.996z
	 M25,5h-2v4.051C23.333,9.032,23.662,9,24,9s0.667,0.029,1,0.047V5z M24,11c-8.836,0-16,7.163-16,16s7.164,16,16,16
	c8.837,0,16-7.163,16-16C40,18.164,32.837,11,24,11z"/>
</svg>
